<svg xmlns="http://www.w3.org/2000/svg" width="61.243" height="47.156" viewBox="0 0 61.243 47.156">
  <g id="_5728208_flight_route_tourism_transmit_travel_icon" data-name="5728208_flight_route_tourism_transmit_travel_icon" transform="translate(-1.379 -1.422)">
    <path id="Path_4091" data-name="Path 4091" d="M27.779,24.146,20.255,3.474l5.638-2.052L39.055,20.043Z" fill="#42a5b2"/>
    <path id="Path_4092" data-name="Path 4092" d="M4.8,28.254,49.977,11.811a4,4,0,0,1,3.449.342l3.826,2.33A4,4,0,0,1,59.988,22L28.039,33.629l-21.188.263Z" fill="#62c4c3"/>
    <path id="Path_4093" data-name="Path 4093" d="M5.138,17.489,1.379,18.857l3.42,9.4,7.518-2.736Z" fill="#42a5b2"/>
    <path id="Path_4094" data-name="Path 4094" d="M29.148,27.905l7.523,20.673,5.64-2.052L40.423,23.8Z" fill="#42a5b2"/>
    <rect id="Rectangle_576" data-name="Rectangle 576" width="5" height="2" transform="translate(50.93 14.658) rotate(-19.981)" fill="#3a4249"/>
    <rect id="Rectangle_577" data-name="Rectangle 577" width="1.999" height="1.999" transform="translate(44.351 17.049) rotate(-19.993)" fill="#3a4249"/>
    <rect id="Rectangle_578" data-name="Rectangle 578" width="1.999" height="1.999" transform="translate(40.592 18.417) rotate(-19.993)" fill="#3a4249"/>
    <rect id="Rectangle_579" data-name="Rectangle 579" width="1.999" height="1.999" transform="translate(36.834 19.786) rotate(-19.993)" fill="#3a4249"/>
    <rect id="Rectangle_580" data-name="Rectangle 580" width="1.999" height="1.999" transform="translate(33.075 21.154) rotate(-19.993)" fill="#3a4249"/>
    <rect id="Rectangle_581" data-name="Rectangle 581" width="1.999" height="1.999" transform="translate(29.316 22.522) rotate(-19.993)" fill="#3a4249"/>
    <rect id="Rectangle_582" data-name="Rectangle 582" width="1.999" height="1.999" transform="translate(25.558 23.89) rotate(-19.993)" fill="#3a4249"/>
    <rect id="Rectangle_583" data-name="Rectangle 583" width="1.999" height="1.999" transform="translate(21.799 25.258) rotate(-19.993)" fill="#3a4249"/>
    <rect id="Rectangle_584" data-name="Rectangle 584" width="2" height="2" transform="translate(18.041 26.629) rotate(-20.017)" fill="#3a4249"/>
    <rect id="Rectangle_585" data-name="Rectangle 585" width="2" height="2" transform="translate(14.282 27.997) rotate(-20.017)" fill="#3a4249"/>
    <circle id="Ellipse_209" data-name="Ellipse 209" cx="3" cy="3" r="3" transform="translate(25 40)" fill="#efbc2e"/>
  </g>
</svg>
