<svg xmlns="http://www.w3.org/2000/svg" width="55.59" height="48.53" viewBox="0 0 55.59 48.53">
  <g id="XMLID_4176_" transform="translate(-52.65 -65.36)">
    <path id="XMLID_4241_" d="M106.743,98.747a9.905,9.905,0,0,1-8.406,15.143H62.554a9.905,9.905,0,0,1-8.406-15.143l17.89-28.719a9.906,9.906,0,0,1,16.816,0Z" fill="#ffd400"/>
    <path id="XMLID_4229_" d="M140.73,140.955a3.973,3.973,0,0,1-3.372,6.073H101.576a3.973,3.973,0,0,1-3.372-6.073L116.1,112.234a3.974,3.974,0,0,1,6.744,0Z" transform="translate(-39.022 -39.07)" fill="#3f4751"/>
    <path id="XMLID_84_" d="M248,319.272a2.635,2.635,0,1,1-1.864-.772A2.628,2.628,0,0,1,248,319.272Z" transform="translate(-165.691 -219.77)" fill="#ffd400"/>
    <path id="XMLID_83_" d="M248.773,171.136v11.205a2.636,2.636,0,1,1-5.273,0V171.136a2.636,2.636,0,0,1,5.273,0Z" transform="translate(-165.691 -89.544)" fill="#ffd400"/>
  </g>
</svg>
