<svg xmlns="http://www.w3.org/2000/svg" width="46.394" height="49.662" viewBox="0 0 46.394 49.662">
  <g id="Group_2982" data-name="Group 2982" transform="translate(1259.569 -9059.993) rotate(13)">
    <rect id="Rectangle_574" data-name="Rectangle 574" width="5.338" height="37.364" rx="2.669" transform="translate(832.906 9108.919) rotate(-45)" fill="#707070"/>
    <path id="Path_4076" data-name="Path 4076" d="M38.989,39.194,18.231,48.63,9.424,39.823,18.86,19.064Z" transform="translate(817.191 9093)" fill="#ffd100"/>
    <path id="Path_4077" data-name="Path 4077" d="M9.424,42.4h6.227V54.857H9.424A6.227,6.227,0,0,1,3.2,48.63h0A6.227,6.227,0,0,1,9.424,42.4Z" transform="translate(785.565 9113.907) rotate(-45)" fill="#707070"/>
    <path id="Path_4078" data-name="Path 4078" d="M29.2,57.79l-2.438,2.439a1.78,1.78,0,0,1-2.174.267L13.2,53.662l5.033-5.032L28.86,55.006a1.779,1.779,0,0,1,.34,2.784Z" transform="translate(817.191 9093)" fill="#707070"/>
  </g>
</svg>
